<svg width="15" height="15" viewBox="0 0 15 15" fill="none" xmlns="http://www.w3.org/2000/svg">
<path d="M9.6943 8.8976H9.23265L9.06902 8.73026C9.64171 8.0237 9.98649 7.10641 9.98649 6.10854C9.98649 3.88349 8.28596 2.0799 6.18806 2.0799C4.09015 2.0799 2.38962 3.88349 2.38962 6.10854C2.38962 8.33359 4.09015 10.1372 6.18806 10.1372C7.1289 10.1372 7.99377 9.77151 8.65996 9.16411L8.81774 9.33766V9.82729L11.7396 12.9201L12.6103 11.9966L9.6943 8.8976ZM6.18806 8.8976C4.73296 8.8976 3.55837 7.65182 3.55837 6.10854C3.55837 4.56526 4.73296 3.31948 6.18806 3.31948C7.64315 3.31948 8.81774 4.56526 8.81774 6.10854C8.81774 7.65182 7.64315 8.8976 6.18806 8.8976Z" fill="#FDFDFD"/>
</svg>
